<?xml version="1.0" standalone="no"?>
<!DOCTYPE svg PUBLIC "-//W3C//DTD SVG 20010904//EN"
 "http://www.w3.org/TR/2001/REC-SVG-20010904/DTD/svg10.dtd">
<svg version="1.0" xmlns="http://www.w3.org/2000/svg"
 width="512.000000pt" height="512.000000pt" viewBox="0 0 512.000000 512.000000"
 preserveAspectRatio="xMidYMid meet">

<g transform="translate(0.000000,512.000000) scale(0.100000,-0.100000)"
fill="#000000" stroke="none">
<path d="M320 5106 c-147 -41 -267 -162 -306 -310 -20 -76 -20 -4396 0 -4472
41 -155 171 -280 324 -313 75 -16 4368 -16 4444 0 157 33 293 170 327 327 16
75 16 4369 0 4444 -33 153 -158 283 -313 324 -72 19 -4406 19 -4476 0z m1955
-531 c24 -23 25 -30 25 -143 0 -149 15 -198 80 -263 84 -84 3 -79 1277 -79
l1123 0 0 -80 0 -80 -2305 0 -2305 0 0 335 0 335 1040 0 1041 0 24 -25z m2675
-2498 c0 -1892 6 -1743 -79 -1829 -85 -85 125 -79 -2336 -76 -2104 3 -2181 4
-2215 22 -49 26 -98 74 -123 121 l-22 40 -3 1698 -2 1697 2390 0 2390 0 0
-1673z"/>
<path d="M1819 4411 c-35 -35 -38 -77 -8 -115 l20 -26 -20 -29 c-32 -44 -28
-94 10 -125 38 -32 66 -33 112 -2 32 22 37 23 48 9 39 -47 121 -34 145 23 16
39 10 75 -16 99 -18 16 -17 18 7 53 60 89 -40 184 -128 121 l-29 -20 -26 20
c-38 30 -80 27 -115 -8z"/>
<path d="M474 4346 c-59 -26 -68 -106 -17 -146 25 -19 42 -20 527 -20 491 0
503 0 524 20 48 45 39 114 -18 142 -32 16 -77 18 -510 18 -374 -1 -482 -4
-506 -14z"/>
<path d="M1640 3491 c-69 -21 -130 -73 -166 -141 -18 -33 -19 -75 -19 -875 0
-800 1 -842 19 -875 26 -49 74 -98 121 -123 l40 -22 977 -3 978 -2 5 -28 c40
-185 161 -341 328 -421 103 -50 182 -65 295 -58 115 7 205 37 297 98 161 108
265 303 265 497 0 80 -32 199 -77 284 -42 81 -134 178 -211 223 l-52 30 0 596
c0 684 2 668 -80 749 -85 86 17 80 -1424 79 -699 0 -1282 -4 -1296 -8z m2444
-187 c3 -9 6 -100 6 -202 l-1 -187 -25 51 c-29 62 -107 137 -172 167 -67 31
-207 31 -274 0 -66 -30 -143 -105 -175 -172 -24 -49 -28 -67 -28 -146 1 -104
20 -157 82 -226 105 -116 259 -149 400 -84 76 34 129 86 164 160 l29 60 0
-295 0 -295 -78 -26 c-42 -14 -84 -29 -93 -33 -13 -6 -26 10 -63 78 -51 93
-87 130 -144 146 -56 15 -83 12 -138 -15 -38 -19 -59 -39 -88 -85 -22 -34 -42
-57 -47 -53 -4 4 -35 60 -70 123 -34 63 -79 131 -99 150 -64 62 -151 76 -236
36 -62 -29 -74 -44 -149 -185 -32 -61 -62 -108 -66 -104 -4 5 -51 91 -105 192
-54 102 -110 199 -126 217 -42 48 -120 78 -186 71 -61 -6 -130 -43 -158 -84
-10 -15 -127 -230 -260 -478 l-241 -450 -36 -3 c-26 -2 -42 3 -56 17 -21 21
-21 27 -21 823 l0 802 22 23 21 23 1203 0 c1087 0 1202 -2 1208 -16z m-259
-335 c86 -36 124 -162 72 -240 -72 -107 -212 -107 -284 0 -43 64 -24 177 36
220 53 38 117 45 176 20z m-1367 -511 c11 -15 428 -795 437 -820 7 -17 -20
-18 -474 -18 -265 0 -481 1 -481 3 0 11 444 833 454 839 18 12 53 9 64 -4z
m688 -166 c10 -7 364 -645 364 -657 0 -3 -92 -5 -204 -5 l-203 0 -89 167 -88
167 78 151 c97 185 109 200 142 177z m1187 -362 c113 -43 209 -142 248 -259
32 -95 25 -222 -18 -314 -80 -171 -270 -271 -450 -238 -142 26 -251 108 -314
236 -32 66 -34 75 -34 180 0 103 2 114 31 175 56 118 154 201 274 235 73 20
187 14 263 -15z"/>
<path d="M4120 1765 c-18 -19 -25 -40 -28 -85 l-4 -60 -57 0 c-49 0 -61 -4
-81 -25 -34 -37 -33 -90 4 -121 21 -19 39 -24 80 -24 l54 0 4 -62 c4 -51 9
-65 32 -85 40 -34 87 -31 120 8 21 25 26 41 26 85 l0 54 56 0 c48 0 59 4 85
29 31 31 36 59 17 94 -19 37 -40 46 -100 47 l-58 0 0 51 c0 81 -29 118 -91
119 -25 0 -42 -7 -59 -25z"/>
<path d="M572 2449 c-53 -27 -115 -96 -130 -147 -7 -22 -12 -76 -12 -121 0
-74 2 -84 25 -106 36 -37 86 -34 119 6 22 26 26 40 26 99 0 98 14 113 119 120
66 5 85 11 106 30 33 31 34 88 2 118 -21 19 -35 22 -118 22 -75 0 -102 -4
-137 -21z"/>
<path d="M1058 2456 c-53 -40 -37 -125 27 -146 21 -7 62 -10 93 -8 45 4 60 10
79 32 30 36 30 80 -2 111 -21 22 -32 25 -102 25 -48 -1 -85 -6 -95 -14z"/>
<path d="M475 1868 c-40 -23 -44 -40 -45 -164 0 -113 1 -122 23 -142 30 -29
89 -30 117 -2 28 28 32 55 28 169 -2 84 -6 104 -23 120 -25 26 -74 35 -100 19z"/>
<path d="M495 1362 c-11 -2 -30 -13 -42 -25 -21 -19 -23 -29 -23 -142 0 -113
2 -123 23 -142 12 -11 30 -23 39 -26 28 -10 78 13 93 44 21 39 21 209 0 248
-15 30 -57 50 -90 43z"/>
<path d="M3274 1257 c-23 -20 -28 -34 -32 -86 -6 -78 11 -119 54 -137 37 -15
58 -11 92 19 19 18 22 30 22 99 0 70 -3 82 -25 103 -31 32 -75 32 -111 2z"/>
<path d="M455 825 c-23 -22 -25 -32 -25 -112 1 -135 43 -211 145 -259 41 -19
66 -24 138 -24 80 0 90 2 112 25 17 16 25 35 25 57 -1 63 -39 88 -135 88 -57
0 -69 3 -90 25 -22 21 -25 33 -25 90 0 96 -25 134 -88 135 -22 0 -41 -8 -57
-25z"/>
<path d="M3279 837 c-28 -22 -39 -55 -39 -122 0 -57 -3 -69 -25 -90 -21 -22
-33 -25 -90 -25 -96 0 -134 -25 -135 -88 0 -22 8 -41 25 -57 22 -23 32 -25
112 -25 72 0 97 5 138 24 102 48 144 124 145 259 0 80 -2 90 -25 112 -27 27
-79 33 -106 12z"/>
<path d="M1069 585 c-29 -16 -52 -66 -42 -93 3 -9 15 -27 26 -39 19 -21 29
-23 142 -23 113 0 123 2 142 23 39 41 31 107 -17 132 -39 20 -214 20 -251 0z"/>
<path d="M1585 588 c-51 -27 -62 -98 -22 -136 21 -20 34 -22 143 -22 107 0
123 2 142 20 44 41 35 110 -18 137 -31 16 -217 17 -245 1z"/>
<path d="M2081 574 c-40 -33 -43 -83 -6 -119 23 -24 30 -25 145 -25 106 0 122
2 140 20 43 43 34 110 -20 137 -15 8 -65 13 -127 13 -95 0 -104 -2 -132 -26z"/>
<path d="M2614 590 c-55 -22 -70 -95 -29 -135 21 -22 33 -25 103 -25 69 0 81
3 99 23 11 12 23 30 26 39 10 28 -13 78 -44 93 -30 16 -121 19 -155 5z"/>
</g>
</svg>
